<svg xmlns="http://www.w3.org/2000/svg" viewBox="0 0 1555.54 2665.92"><defs><style>.cls-1{fill:#333;}</style></defs><g id="Layer_2" data-name="Layer 2"><g id="Layer_1-2" data-name="Layer 1"><path class="cls-1" d="M511,990.46c17.78,7.78,30.8,15.06,47.29,25l17.5,10.22a18.53,18.53,0,0,0,3.29.6c7.13,0,9.75-4.7,10.36-11.21a10.16,10.16,0,0,0-1.8-4.86c-18.78-25.31-48-49.51-72.95-68.89-29.1-20.63-55.48-30.54-90.86-34.78-36.16-2.88-63.89,1.91-96,19.17-14.74,9.06-23.78,18.63-32.88,32.57.7-61.58,26.63-133.93,51.81-188.13,19.11-40.75,37.07-84.84,57.85-127a621.21,621.21,0,0,1,38.82-58.61A565.12,565.12,0,0,1,496.14,524c23.62-23.09,45.35-40.94,73-59,25.93-16.26,48.74-27.67,78-36.78,25-7.21,45.24-10.6,71.29-10.89a243,243,0,0,1,50.3,5.43c42,9.74,73,24.66,110.29,45.54.35.2.77.41,1.11.62,25.15,14.67,48.66,29.55,72,44.92l5.26,3.84L1017.24,563c-4.7,3.27-38.27,27.62-40.31,30.83-1.89,3-2.85,5.91-1,9.53,4,7.8,13.24,3.71,13.14,3.48l3.86-1.89c18-7.65,35.78-15,53.76-22.06q5.61,3.48,11.38,6.77c9.28,6.26,18.31,12,26.73,16.73,4.26,5.51,8.84,8.77,15.44,11.85,13.83,5.71,26.44,6.4,41.18,6.29,21.41-.31,39.6-6.6,59.52,3.71,4.74,2.46,7.85,6,12.76,5.8a9.83,9.83,0,0,0,9-12.61c-7.33-20.93-19.83-29.5-27.3-48-2.95-7.29-5.48-14.55-8.62-21.84,12.25,2.81,24.57,12.27,33.72,20.61,0,0,4,4.31,4.39,4.68,2.1,2,3.46,3.5,6.78,3.88,6.44.74,11.23-6.19,8.36-12.08-5.07-10.38-16.52-20.83-26.39-26.72-26.6-15-49.08-13.1-77.91-6.59-18.26,4.13-36,10.09-53.73,16.08-11.84,4.14-23.49,8.43-35.06,12.86,36.43-23,89.74-52.5,134-46,20.6,3,35.79,6.85,53.88,17.63,18.31,12.26,27.48,25.29,36.78,45.08,4,8.74,24.21,60.46,26.54,62.77a10.68,10.68,0,0,0,5.31,5.25A10.84,10.84,0,0,0,1318.72,638c-1.66-16.84-.91-30.3,1.85-47,6.27-35.12,27.21-69.61,25.78-105.42,5.27-3.11,10.33-6.41,15.66-10,47-31.95,87.76-73.87,111.72-125.7,17.66,34.83,28.83,63.12,31,107.33,0,5.88-.13,11.51-.42,17a10.39,10.39,0,0,0-1.32,1.06c-26,25.35-48.16,54.27-67.72,84.79-13.52,22.52-32.92,50.12-27,69.82a72.1,72.1,0,0,0-1.33,12.86c2,34.18,20.34,69.25,36.43,98.89,12.76,23.27,34.48,58.38,50.71,78,17.71,21.42,49.5,64.42,46.09,95-3.58,32.26-21.22,42.22-52.34,45,.3-9-8.07-17.38-14.58-22.2-16.65-12.34-36.76-14-56.46-18a97.54,97.54,0,0,1-18.27-5.86c-9.61-5.79-29.41-26.33-41.27-35.42-20.8-15.58-44.91-25.24-70.34-14.62a67.71,67.71,0,0,0-41.9,58c-1.75,25.5,10.86,48.86,33.72,60.77,23.31,12.15,51.11,11,76.24,6,18.07-3.77,36-9.91,53.53-13.87a432.69,432.69,0,0,1,44.54-.33c-6.28,3.47-14.59,8.69-20.41,14.45-9.81,9.88-14.51,18.78-18.28,32.17-11.54,44.1,9.29,63.48-.06,89.13-1,2.76-3.55,7.83-6.72,8.68-6,1.6-19.26-9.15-33.43-8.33-11.72.69-23.85,7.33-34.09,13-28.33,14.49-66.14,38-100,47.92-37.06,10-54.5,12-92.81,12.53-10.13.15-34.77-.67-31.77,15.68,1.81,9.9,13.86,8.91,22.3,10.52,35.23,6.71,66.37,27.62,100,39.68,11.53,4.14,23.07,7.51,34.91,10.65,28.78,7.21,71.62,15.67,101,10.33-11.6,13.29-19.44,26.69-27.13,44.26-9.14,22.38-13.67,41.6-17,65.48-4.88,31.51-18.77,61.43-35.62,88.24-15,23.22-36.43,49.33-63.73,58.23-1.91.43-3.81.8-5.74,1.13s-3.6.57-5.48.82c-36.37,4-73.88-1.64-109.76-7.39-47.83-8.54-92.58-19.92-139.12-33.82-31-9.7-62.44-20.08-93.54-31.69q2-3.66,3.79-7.42a93.58,93.58,0,0,0,6.57-17.62c1.33-5.88,1.78-10.58.35-16.51a59.78,59.78,0,0,0-11.12-21.59A100.32,100.32,0,0,0,857.57,1375c-16.77-12.22-33.49-20.35-52.37-28.71-31.1-13.4-62.92-24.81-94.31-37.53-11.7-4.82-23.13-9.76-34.57-15.19-39.93-19.89-74.18-42-101.34-78.07-1.54-2.21-2.77-4.53-4.27-6.7a10.34,10.34,0,0,0-4.45-3.56,10.07,10.07,0,0,0-8.94.62,10,10,0,0,0-2.66,2.28,10.17,10.17,0,0,0-2,3.89,10.38,10.38,0,0,0-.13,4.5c.1.44.17.88.3,1.32.26.86,1.53,5.3,1.76,5.64,18.71,51.57,50.44,88.41,89.9,125.43,7.79,7.1,15.58,13.81,23.77,20.45,54.88,41.35,116.83,71.76,181.09,96.3-3.21,5.27-6.53,10.48-9.86,15.67-11.84,18.76-24.66,37.22-37,55.69-13.2,19.83-26.09,39.57-38.56,59.87-27.64,45.79-49.39,86.46-65,138a293.29,293.29,0,0,0-7.86,35.29,214,214,0,0,0-2.51,34.21,155.44,155.44,0,0,0,5.3,39.14c1.18,4.24,7.39,23.28,10.91,24.66v-.05c0-1.32-5.77-28.93-6.35-33.67a184.69,184.69,0,0,1-1-29.93,238.74,238.74,0,0,1,6.58-43.35c1.92-7.73,4.07-15.14,6.54-22.71,17.13-49.36,39.49-89,67.17-133,12.91-19.78,25.72-39.25,39.14-58.7,12.72-18.43,25.58-36.76,38-55.39,4.18-6.36,8.29-12.69,12.23-19.12,32.42,11.79,65.3,22.23,98.06,31.94,40.14,11.33,78.75,20.8,119.25,27.81,43.11,8.42,87.45,14.11,125.17,12.18,21.86-2.28,42-7.79,59.45-20.87,39.27-30.45,71.51-93.11,78.46-140.7,3-22.14,7.2-40,15.67-60.74,20.14-47.59,40.62-46.07,49.91-75.84,6.91-22.14.18-47.93-16.76-61.6,26.29-16.78,40.5-47.44,39.81-78.62a62.11,62.11,0,0,0-1.83-15c-.27-1-2-2.78-4.33-4.11l-3.4-19.82c-2.9-16.47-2.83-26.23,1.15-42.69,6.43-24.57,21.3-32.13,41.88-43.54a67.24,67.24,0,0,0,9.19-5.93,160.79,160.79,0,0,0,23.2-2.17c32.61-5.88,49.32-23.44,53.11-56.12,4.18-36.16-28-80.9-49.1-106.77-11.37-14-22-30.79-31.52-46.15-18.83-30.6-50.66-87.74-51.25-121,0-1.48.12-3,.28-4.41,21.62-12.9,41.8-33.13,57.24-51.82,31.31-41.88,41.75-77.44,41.76-129.46-2.59-53.37-16.86-84.61-40.08-129.18,6.91-21.36,9.79-43.66,8.57-70-8.5-80.11-38.59-148.07-81.82-215.25-4-6.27-25.25-37.54-29.4-40.57a9.19,9.19,0,0,0-14.75,6.5c-1.49,13-.76,35-.11,48.45,3.49,72.45,22.26,133,55.77,197,13.44,24.87,28.74,49.68,42.1,75.13-20,53.87-63.83,99.56-110.94,131.62-2.93,2-5.79,3.85-8.66,5.67-10.78-27-58-44.77-82.28-51.68-53.6-15.28-115.48-15.73-169.4-4.53-45.41,10.11-86.28,23.05-121.75,54.25-11.91,11.48-19.82,19.18-22.68,25.58l-.8,1.3c-18.57-12.86-37.61-25.1-57.37-37.2a12.3,12.3,0,0,1-1.11-.68c-38.76-23.2-70.62-39.21-114.85-49.94a250.89,250.89,0,0,0-55.17-6.09c-27.91.43-49.62,4.08-76.42,11.81-31,9.65-55.07,21.58-82.57,38.71-29.3,19-51.87,37.74-76.55,62.41A515.46,515.46,0,0,0,437.55,563a401.1,401.1,0,0,0-25.4,34.42C383.3,642.52,349,712,326.39,760.61c-17.55,38.06-30.85,72.85-41.67,113.45-.48,1.87-3.41,13-3.36,14-8.37,39.6-12.36,74.22-5.43,111.91-.87,2.65-1.71,5.36-2.55,8.15-2.35,8.1-4.35,16.1-6.19,24.32-5,23.17-8.43,46.25-13.07,69.4-2.14,8.68-7.53,15.45-13.41,22-24,26-64.31,46.42-88.57,68.85-24,22.88-44.71,48-68.47,70.44-12.51,10.9-30.41,20.66-44.5,31.63-25.69,20.43-39,43-39.17,76-.23,59.44,41.68,101.64,93.67,124.82l37.69,13a48.82,48.82,0,0,1-6,14L114,1530c-15.3,7.75-30.48,13.44-43.25,25.89-15.6,15.2-18.19,35.1-13.79,55.91,4.44,21,18.58,46.84,36.39,59l-6.81,11.86c-23.52,14.9-37.12,39.88-28.34,69.81,5.62,19.14,19.07,31.77,33.86,44.18,4,3.38,18.29,14.18,17.5,20.26-2.27,13.06-14,37.44-18.94,51.66-13.35,40.19-16,83.34,7.14,120.59,21,32.07,44.54,50.47,77.81,66.45,12.56,11,38.75,16.92,62.68,20.26a306.93,306.93,0,0,0,50.26,5.32l29.51-.51c53.16-.83,103.6-7.41,156.35-11.35,46.12-3.26,101.29-3.14,141.25,23.23,40.64,27.57,66.46,61.26,93.29,101.76,33.73,52.87,59.92,106,86.61,162.53,38.82,82.63,98.43,227,156.11,294.52,1.45,1.7,13.74,15.8,15.4,14.42,1.3-1.34-13.5-23.69-13.57-23.8-52.89-85.23-93.49-189.11-134.39-281-25.8-58-57.72-125.82-91.56-178.68-28.86-44.14-56.23-79.59-100.53-109.29-18.37-12-40.42-19.31-59.95-23,27.23-4.95,53.78-10.16,79.1-15.37,56.21-12.16,112.51-25.52,166.12-46.64,48.9-21.92,81.55-50.77,116.7-90.56,31.35-36.31,59.56-80.49,80.41-123.78,2.25-4.66-7.49-26.88-21.58-3.11-32.9,45.39-68.56,74.61-115,105.3-43.55,27.59-83.91,47.6-131.76,66.59-3.13,1.22-7,2.89-10.11,3.85-18.11,6.65-36,12.62-54.2,18.28q-20.85,4.88-41.78,9.51c-40.08,8.84-79,17.52-118.66,28.2-62.47,16.79-185,48.67-247.6,48.55-43-.76-60.41-12.12-74.07-11.39a25.58,25.58,0,0,1-3.29-1.46c-32.26-14.67-54.75-30.81-74.46-60.7-19.67-31.44-16.39-68.15-5.39-102.05,6-17.59,16.79-38.69,19.48-56.41,2.34-21-21.06-33.06-38-49.69,44.63,8.15,115.69-23.54,148.38-49.74l10.07,3.68c4.18-.17,7.49-1.26,10-5,2.82-4.22,2.36-10.31-.68-13.56l-3.91-3.65c-15.24-13.66-31.93-25.11-48.51-37-23-16.52-62.06-70.46-95.75-90.23-9-5.31-17.25-8.1-27.47-5.19,14.52-15.13,45.77-24.79,53-38a59.22,59.22,0,0,0,6.11-19.21c17.76,3.19,33.28,3,53.2-2.06l7.16-2.94a59.47,59.47,0,0,0,18.86-3.93c46.89-18.57,51.59-92.69,17.81-127.62-10.26-10.61-26-18.19-40.73-19.45-15.69-1-26.94,2.55-40.17,10.87-24.18,15.4-29.33,38.92-28,65.54-18-7.42-37.18-10.72-61-11,.85,0-1.7-.07-2.49-.07-11.82.23-13.91,13.41-7.52,18.44a357.76,357.76,0,0,0,51.37,38.06l8.46,4.55-18.37-6.55c-42.93-19.32-79.52-53.37-80.12-102.87-.19-15,2.46-27.14,10.82-39.37,17.26-25.24,48.17-37,65.5-53.23,23.89-22.54,44.61-47.68,68.61-70.59,29.68-27.43,99-59.55,108.66-102.57,4.46-22.19,7.79-44.3,12.49-66.47a138.59,138.59,0,0,0,37.3,46.72c.79,9.13,3.45,17.24,7.25,26.28,8.21,19,20.33,36.48,37,48.87,9.41,7,24.3,14.46,35.21,18l.85.32c3.13,1,6.31,2.07,9.52,3l3.06,1.64c-28.68,5.2-56.36,16.26-74.11,40.42a42.21,42.21,0,0,0-5.48,10.18c-2.7,7.64,5.66,16.89,15.22,10.4,35.68-20.47,78.07-37.91,117.91-48a10.29,10.29,0,0,0,6.33-4.51c9.95-.68,19.73-1.38,29.05-2.45l40.16-4.54a110.72,110.72,0,0,0,23.34,1.55,12.06,12.06,0,0,0,10.35-6.1l4.68-.66c2.93-.55,7.23.45,9.58-3.55,2.5-4.23-.65-7.63-4.16-9.74-13.55-8.24-23.18-17-34.29-28.13-30.42-30.83-49.56-57.71-82-90.27-6.17-9.42-23.85-25.58-29.16-29.89C427.87,1004.63,407,993.63,384.82,985c16.89-9.9,36.12-16.07,55.95-14.39C467,973.51,486.93,980,511,990.45Zm156.61,321.47c12.27,5.61,24.2,11,36.7,16.14,30.9,12.52,62.26,23.73,92.91,36.79,17.31,7.58,33.19,15.11,48.61,26.17A82,82,0,0,1,861,1405.1a41.06,41.06,0,0,1,7.77,14.59c.57,2.14,0,5-.41,7.06a75.4,75.4,0,0,1-5.12,13.94q-2.07,4.39-4.36,8.7c-63.23-24.72-124.56-55-178-95.34-7.55-6.14-14.78-12.35-22-18.89-21.6-20.14-41.2-40.59-57.22-63.74,19.77,15.7,41.69,28.39,66,40.51Zm427.61-883.75c43-8.26,77.78-9.69,121.16-4.05,30.14,4.44,65,13.59,90.63,30.07,6.57,4.23,18.65,13.25,20.06,21.6-7.51,3.53-14.89,6.38-23.33,6.09-17.71-1.8-40.07-10.34-57.83-15.15-45.38-11.16-80.12-13.61-126.63-12.54-9.81.54-89.29,7.51-134.29,21.29C1017,448.68,1054.9,437.16,1095.25,428.18Zm-128.63,77c38.55-23.65,114.22-30.75,153.27-32.9,44.66-1,77.93,1.24,121.51,12,20,5.43,40.62,13.62,61.2,15.7a59.44,59.44,0,0,0,25.47-4.83c-.75,11.07-3.65,21.53-7.34,33.36-9,28.33-17.14,45.06-20.12,75.55-4.12-10-8.21-20.11-12.58-30.07-21.87-48.07-57-67.31-108.18-73.48-49-5.91-109.08,27.47-149,53.61-18.9-13.92-37-27.89-50.45-38ZM1265,893.64c7.13-10.14,14.45-16,25.7-21.14,22.43-9.72,43.2-.34,61.72,12.78,12.48,9.33,32,29.32,42.94,35.37a89.57,89.57,0,0,0,8.69,3.09c-22.07,0-44.93,8.12-55.6,28.67-6.65,13.63-9,20.4-4.51,26.53-19.78,3.22-41.7,3.42-60.12-6-30.22-15.36-36.62-52.93-18.82-79.35Zm-21.66,289.13c45.76-13.76,97.73-51.6,123.21-60.45a41.49,41.49,0,0,1,8-.93c12.35.22,23.21,12.37,35.71,9.89A18,18,0,0,0,1416,1129c-5.45,15.35-15.77,29.49-27.26,36.84-7.6,4.86-31.66,5.89-40.71,6.43-23.38,1.41-44,2.67-67.11,7.4a392.29,392.29,0,0,1-48.91,6.25c3.51-1,7.24-2,11.26-3.12Zm91.34,11.87c12-1.28,30-3.35,41.68-.28,11.17,3.32,18.69,15.15,20.74,26.23,1.42,7.67,1,14.54-3.41,21-17.86,26-93.69,7.61-116.69,1.79-49.23-13-64.27-24.3-95.26-37.74,8.9.13,17.75.33,26.5.53C1252.57,1206.61,1291.14,1199.74,1334.65,1194.64Zm22.48-226.82c6-22.24,23.65-29.52,45.37-30.73,22.54-.31,39.06,3.63,57.69,16.41a90,90,0,0,1,7.58,6.32,240.35,240.35,0,0,0-46.71.54c-23.75.64-52.14,2.51-63.93,7.45Zm112.79-663.24c-11-19.82-22.33-39.32-33.33-59.13-33.38-63.92-52.85-129.11-54-201.58-.14-9.49-.78-9.16,4.6-1.41,15,21.56,31.07,49.78,42.78,73.33,23.06,46.37,37.46,92,43,143.6a184.45,184.45,0,0,1-3.07,45.19ZM1079.07,571a44.36,44.36,0,0,0-1.81,9.85c0,1.91,0,3.73.14,5.47-4.66-2.94-9.47-6.09-14.37-9.4Q1071,573.92,1079.07,571Zm23.76-8.13,8.07-2.63c-7,3.34-12.33,10.63-15,17.85a29.58,29.58,0,0,0-1.31,15A25.44,25.44,0,0,1,1102.83,562.89Zm22.09-6.82a36.22,36.22,0,0,1,10.53,1.61,27.06,27.06,0,0,1,9.07,4.78c9.42,7.72,9.83,21.92,4.46,31.64a20.6,20.6,0,0,1-16.78,10.36,36.92,36.92,0,0,0,6.76-13.33l1.24-7.24c1.71-14.25-8.3-27.67-23-25.56,2.56-.77,5.15-1.53,7.75-2.26Zm-2.63,16.85c4.39,2.08,4,8.13,3.48,11.83,0,.25-.55,2.93-.55,2.93a24.16,24.16,0,0,1-9,12.86c-16.24-9.61-2.13-31.54,6.12-27.62ZM1434.2,607.1c16-31.74,42.13-64.89,64.07-92.59-5.69,21-15.56,40.19-31.26,61.28A190,190,0,0,1,1434.2,607.1ZM1158,606.88c14-17.37,12.54-43-5.41-57.17,1.08-.18,9.64-1.5,10-1.36.77.28,5.88,5.18,6.63,6.26,7.54,11,9.94,26.69,17.85,38.73,3.84,5.83,8.14,11.4,12,17.23-13-4.33-25.42-4.74-38.82-2.84l-1.91.27-1-.18ZM501.88,958.81c6,4.53,12.38,9.52,18.92,14.83-25.67-11-53.43-19.38-78.58-21.15-28.08-2-55.76,8.94-78,25.71-12.67-3.83-25.75-6.76-37-7.53a77,77,0,0,0-13.2.12c6.58-10.26,14.8-19.31,25.18-25.33,27.56-14.91,51.52-18.93,82.6-16.63,31,3.54,54.46,12.11,80.15,30Zm-54,71.27c11.78,12.08,27.24,28,30.48,31.7,17.43,20.41,33.73,41.47,50.91,61.92-28.15-21.85-59.89-46.56-90-50.26-24.51-2.7-34.7,1.41-56.86,10.16-12.15,4.63-17.92,2.92-29.23-4.28q-4.15-2.76-8-5.63a10,10,0,0,0-4.56-4.35,10.37,10.37,0,0,0-1.72-.67,118.36,118.36,0,0,1-32.44-43.19l11,6.77c5.16,1.57,8.16,1.39,13.15-.58,5.93-3.23,28.85-28.64,42-38.3A289.29,289.29,0,0,1,419,1012.08a241.34,241.34,0,0,1,28.93,18Zm-81.39,78.3c23.83,2.81,37.39-17.25,69.9-12.9,16.32,2.6,28.42,9.54,42,18.23,13.84,8.89,43.46,31.14,65.46,49.85-13.18-4.1-42.58-20.29-55.29-26.73-20.12-10.22-40.3-19.49-64.29-25.54-29.85-5.77-23-1.58-45.29,3.7-3.66.16-9.64-4-12.48-6.61Zm1.93,25.24a27,27,0,0,0,18.33.67,47,47,0,0,0,2.89,17.2A83.89,83.89,0,0,1,368.42,1133.62Zm-201.27,243.6c21-12.66,43.92-9.81,61.39,6.6,22.7,21.33,24.79,71.44,1,94.11-7.33,7-15.42,9.73-24.6,10.37-6.74-8.88-20.84-22-27.06-27.46a188.89,188.89,0,0,0-35.74-24.26C142.21,1411.21,144,1391.21,167.15,1377.22Zm-32.66,79.2c.42,3.94.82,7.83,1.1,11.67a276.63,276.63,0,0,1-37-24.15A116.58,116.58,0,0,1,134.49,1456.42Zm8.23,4.86A196.65,196.65,0,0,1,170.34,1483a174.41,174.41,0,0,1-27.3-11C143,1468.5,142.85,1464.93,142.72,1461.28Zm262.53-324.69c7.62,5.74,19.35,23.05,22.24,29.72a55.61,55.61,0,0,1-7.76-1.8c-6.21-3-13.93-18.24-14.48-27.92ZM130.11,1613.26c17.95,18.87,35.76,42,55,60.23l-14.35-4.22c-17.21-4.76-46.46-8.89-61-14.49-4.21-1.75-7.85-5.11-11-8.32-11.65-12.11-21.34-31.16-22.92-48.87a18.86,18.86,0,0,1,6.9-10.2,17.44,17.44,0,0,1,10.58-2.92C104.16,1586.73,122.73,1605.5,130.11,1613.26Zm-5.7,75.48,23.24-1.71c26.51,5.45,51.87,14.55,75.95,24.87-22.92,16.87-58.32,33.39-84.74,40.45-13.68,3.65-46.76,9.89-59.79-2.1-.44-1.07-.83-2.17-1.17-3.29-9.79-32.13,18.35-52.16,46.51-58.22ZM429.16,1134.4c27.36,8.56,59.75,26.53,73.07,33.49,6,3.15,11.44,6,16.61,8.55l-43,3.18a10.54,10.54,0,0,0-2.2-1.11c-4.15-1.54-13.91.29-27.15-2.48,5.16-12.84-9.42-31.94-17.3-41.63ZM326.43,984.18a145.92,145.92,0,0,1,26.11,3.76c-11.55,10.45-31.43,29.62-28.71,29.43-7.34,1.1-22.54-21.28-17.25-29.16C309.29,984.16,322.09,984,326.43,984.18Zm408.24,973.49c70.49-22.7,149-61.67,208.15-111.3-9.48,13.1-19.48,25.73-29.9,37.59-32.88,36.56-63.76,63.86-109.16,83.93-53,20.46-108.59,33.47-164,45.45-75.39,15.49-162.46,31.19-245.68,39.55,42.78-10.07,84.56-21.44,126.73-34,35.67-10.54,71.33-20,107.15-29.89,19-5.26,37.79-10.75,56.41-17C701.27,1967.77,717.71,1963.1,734.67,1957.67Z"/></g></g></svg>