<svg xmlns="http://www.w3.org/2000/svg" viewBox="0 0 113.85 136"><defs><style>.cls-1{fill:none;stroke:#40404c;stroke-linecap:round;stroke-linejoin:round;stroke-width:2.5px;}</style></defs><g id="Layer_2" data-name="Layer 2"><g id="OBJECTS"><path class="cls-1" d="M3.66,74.66s-5.42,3.61,0,8.72,42.39,23.15,57.12,37.88,6.92,16.84-4.51,9S31,99,53.87,108.94s31.87,25.55,46.3,22.55,11.73-14.14,6.92-19.55,10.4-9.62,3.84-18S91.45,75.26,70.7,79.47s-7.21,7.22,3.61,6S97.46,71.35,90.85,62.63,62,51.81,59.58,42.19s4-35.78-2.66-38.79S29.81,10,23.5,32.26s.29,52.45,3.91,60.14A108.74,108.74,0,0,1,9.07,36.77C7.86,4.3,20.79-4.12,23.5,4.3s7,8.23,7,8.23"/></g></g></svg>