<svg xmlns="http://www.w3.org/2000/svg" viewBox="0 0 3000 3000"><defs><style>.cls-1{fill:#fff;}.cls-2{fill:#333;}</style></defs><g id="Layer_2" data-name="Layer 2"><g id="Layer_1-2" data-name="Layer 1"><g id="_1414124737552" data-name=" 1414124737552"><rect class="cls-1" width="3000" height="3000"/><path class="cls-2" d="M1233.26,1157.5c17.79,7.78,30.8,15.06,47.3,25l17.49,10.22a18.72,18.72,0,0,0,3.3.6c7.13,0,9.74-4.7,10.35-11.21a10.05,10.05,0,0,0-1.8-4.86c-18.77-25.31-48-49.51-73-68.89-29.1-20.63-55.48-30.54-90.86-34.78-36.16-2.88-63.89,1.91-96,19.17-14.73,9.06-23.78,18.63-32.88,32.57.7-61.58,26.63-133.93,51.82-188.13,19.11-40.75,37.06-84.84,57.85-127a619.82,619.82,0,0,1,38.81-58.61A567.33,567.33,0,0,1,1218.37,691c23.63-23.08,45.35-40.93,73-59,25.93-16.26,48.73-27.67,78-36.78,25-7.21,45.24-10.6,71.29-10.9a243.63,243.63,0,0,1,50.3,5.44c42,9.74,73,24.66,110.29,45.54.35.19.77.41,1.11.62,25.16,14.67,48.66,29.55,72,44.91l5.26,3.85L1739.47,730c-4.7,3.27-38.27,27.62-40.31,30.83-1.89,3-2.85,5.9-1,9.53,4,7.8,13.24,3.71,13.14,3.48l3.86-1.89c18-7.65,35.78-15,53.76-22.06q5.61,3.48,11.38,6.77c9.28,6.26,18.31,12,26.73,16.73,4.26,5.51,8.84,8.77,15.44,11.85,13.83,5.71,26.44,6.4,41.18,6.29,21.41-.31,39.61-6.61,59.52,3.71,4.74,2.45,7.85,6,12.76,5.8a9.84,9.84,0,0,0,9-12.61c-7.33-20.93-19.84-29.5-27.31-48-2.95-7.29-5.48-14.55-8.61-21.84,12.24,2.81,24.56,12.27,33.72,20.61,0,0,4,4.31,4.38,4.68,2.1,2,3.46,3.5,6.79,3.88,6.43.74,11.22-6.19,8.35-12.08-5.07-10.38-16.52-20.83-26.39-26.72-26.6-15-49.08-13.1-77.91-6.59-18.26,4.13-36,10.09-53.73,16.08-11.84,4.14-23.49,8.43-35,12.86,36.42-23,89.73-52.5,134-46,20.59,3,35.78,6.85,53.87,17.63,18.31,12.26,27.49,25.29,36.78,45.08,4,8.74,24.21,60.46,26.54,62.77a10.72,10.72,0,0,0,5.31,5.25A10.84,10.84,0,0,0,2041,805c-1.66-16.84-.91-30.3,1.85-47,6.27-35.11,27.21-69.61,25.78-105.41,5.27-3.11,10.33-6.41,15.66-10,47-32,87.76-73.87,111.72-125.7,17.66,34.83,28.83,63.12,31,107.33,0,5.87-.12,11.51-.42,17a11.14,11.14,0,0,0-1.32,1.06c-26,25.35-48.16,54.27-67.72,84.79-13.52,22.52-32.92,50.12-26.95,69.81a73.25,73.25,0,0,0-1.33,12.87c2,34.18,20.34,69.25,36.43,98.89,12.76,23.27,34.49,58.38,50.72,78,17.7,21.41,49.49,64.42,46.09,95-3.59,32.25-21.22,42.22-52.35,45,.31-9-8.07-17.38-14.58-22.21-16.64-12.33-36.76-14-56.46-18a97.22,97.22,0,0,1-18.26-5.86c-9.62-5.79-29.42-26.33-41.28-35.43-20.8-15.57-44.91-25.23-70.34-14.61a67.7,67.7,0,0,0-41.9,58c-1.75,25.5,10.87,48.85,33.72,60.77,23.32,12.15,51.12,11,76.24,6,18.07-3.77,36-9.91,53.53-13.87a432.89,432.89,0,0,1,44.55-.33c-6.29,3.47-14.6,8.69-20.42,14.45-9.81,9.88-14.51,18.78-18.28,32.17-11.54,44.1,9.29,63.48-.06,89.13-1,2.76-3.55,7.83-6.72,8.68-6,1.6-19.26-9.15-33.42-8.33-11.72.68-23.86,7.33-34.1,13-28.33,14.49-66.14,38-100,47.91-37,10.06-54.5,12-92.81,12.54-10.13.15-34.77-.68-31.77,15.67,1.81,9.91,13.86,8.92,22.31,10.53,35.23,6.71,66.36,27.62,100,39.68,11.52,4.14,23.06,7.51,34.9,10.65,28.78,7.21,71.62,15.67,101,10.33-11.6,13.29-19.44,26.69-27.13,44.26-9.14,22.38-13.67,41.6-16.95,65.48-4.88,31.51-18.76,61.43-35.62,88.24-15,23.22-36.43,49.33-63.73,58.23-1.91.43-3.81.8-5.73,1.13s-3.61.57-5.49.82c-36.37,4-73.87-1.64-109.76-7.39-47.83-8.55-92.58-19.93-139.12-33.82-31-9.7-62.44-20.08-93.53-31.69q2-3.66,3.78-7.42a93.84,93.84,0,0,0,6.57-17.62c1.34-5.88,1.78-10.58.35-16.51a59.78,59.78,0,0,0-11.12-21.59A100.32,100.32,0,0,0,1579.8,1542c-16.77-12.22-33.49-20.35-52.37-28.71-31.1-13.4-62.92-24.81-94.3-37.54-11.71-4.81-23.13-9.75-34.58-15.18-39.93-19.89-74.18-41.95-101.34-78.07-1.54-2.21-2.77-4.53-4.27-6.7a10.34,10.34,0,0,0-4.45-3.56,9.88,9.88,0,0,0-5.35-.65,10,10,0,0,0-6.24,3.55,10.05,10.05,0,0,0-2,3.89,10.53,10.53,0,0,0-.13,4.5c.1.44.17.88.3,1.32.26.86,1.53,5.3,1.77,5.64,18.7,51.57,50.43,88.41,89.89,125.43,7.79,7.1,15.58,13.81,23.77,20.45,54.88,41.35,116.84,71.76,181.09,96.3-3.21,5.27-6.52,10.48-9.86,15.67-11.84,18.76-24.66,37.22-37,55.69-13.2,19.83-26.09,39.57-38.56,59.87-27.64,45.79-49.39,86.46-65,138a293.29,293.29,0,0,0-7.86,35.29,215.21,215.21,0,0,0-2.51,34.21,155.44,155.44,0,0,0,5.3,39.14c1.19,4.23,7.39,23.28,10.91,24.66v0c0-1.32-5.77-28.93-6.35-33.67a185.83,185.83,0,0,1-1-29.93,238.74,238.74,0,0,1,6.58-43.35c1.93-7.73,4.08-15.14,6.54-22.71,17.13-49.36,39.49-89,67.17-133,12.91-19.78,25.72-39.25,39.14-58.7,12.72-18.43,25.58-36.76,38-55.39,4.18-6.36,8.3-12.69,12.23-19.12,32.42,11.79,65.31,22.23,98.06,31.94,40.14,11.33,78.75,20.8,119.25,27.81,43.11,8.42,87.45,14.11,125.17,12.18,21.86-2.28,42-7.79,59.45-20.87,39.27-30.45,71.51-93.11,78.46-140.7,3-22.14,7.2-40,15.67-60.74,20.14-47.59,40.62-46.07,49.91-75.84,6.91-22.14.18-47.93-16.76-61.6,26.29-16.78,40.51-47.44,39.81-78.62a62.11,62.11,0,0,0-1.83-15c-.26-1-2-2.78-4.33-4.11l-3.4-19.82c-2.9-16.47-2.83-26.23,1.15-42.69,6.43-24.57,21.3-32.13,41.88-43.54a66.63,66.63,0,0,0,9.19-5.93,160.79,160.79,0,0,0,23.2-2.17c32.61-5.88,49.33-23.44,53.11-56.12,4.18-36.16-28-80.9-49.1-106.77-11.36-14-22-30.79-31.52-46.15-18.83-30.6-50.66-87.74-51.25-121,0-1.48.13-3,.28-4.41,21.62-12.9,41.8-33.13,57.24-51.82,31.31-41.88,41.75-77.44,41.76-129.46-2.59-53.37-16.86-84.61-40.08-129.18,6.91-21.36,9.79-43.66,8.57-70-8.5-80.11-38.59-148.07-81.82-215.25-4-6.27-25.25-37.54-29.4-40.57a9.19,9.19,0,0,0-14.75,6.5c-1.49,13-.76,35-.11,48.45,3.49,72.45,22.26,133,55.77,197,13.45,24.87,28.75,49.68,42.1,75.13-20,53.87-63.83,99.56-110.94,131.62-2.93,2-5.79,3.85-8.66,5.67-10.77-27-58-44.77-82.27-51.68-53.6-15.28-115.49-15.73-169.41-4.53-45.41,10.11-86.28,23-121.75,54.25-11.91,11.48-19.81,19.18-22.68,25.58l-.8,1.3c-18.57-12.86-37.6-25.1-57.37-37.2-.24-.1-.85-.52-1.11-.68-38.76-23.2-70.62-39.21-114.85-49.94a250.86,250.86,0,0,0-55.16-6.09c-27.92.43-49.62,4.08-76.43,11.81-31,9.65-55.07,21.58-82.57,38.71-29.3,19-51.87,37.74-76.55,62.41A515.46,515.46,0,0,0,1159.78,730a398.9,398.9,0,0,0-25.39,34.42c-28.86,45.1-63.17,114.6-85.77,163.19-17.55,38.06-30.85,72.85-41.67,113.45-.48,1.87-3.41,13-3.36,14-8.37,39.6-12.36,74.22-5.43,111.91-.87,2.65-1.71,5.36-2.55,8.15-2.35,8.1-4.35,16.1-6.19,24.32-5,23.17-8.43,46.25-13.06,69.4-2.14,8.68-7.54,15.45-13.42,22-24,26-64.3,46.42-88.56,68.85-24,22.88-44.71,48-68.48,70.44-12.51,10.9-30.41,20.66-44.5,31.63-25.69,20.43-39,43-39.17,76-.23,59.44,41.68,101.64,93.67,124.82l37.69,13a48.82,48.82,0,0,1-6,14l-11.43,7.5c-15.3,7.75-30.48,13.44-43.25,25.89-15.6,15.2-18.18,35.1-13.79,55.91,4.44,21,18.58,46.84,36.39,59.05l-6.81,11.86c-23.52,14.9-37.12,39.88-28.34,69.81,5.63,19.14,19.07,31.77,33.87,44.18,4,3.38,18.28,14.18,17.5,20.26-2.28,13.06-14,37.44-19,51.66-13.35,40.19-16,83.34,7.14,120.59,21,32.07,44.55,50.47,77.81,66.45,12.57,11,38.75,16.92,62.68,20.26a306.93,306.93,0,0,0,50.26,5.32l29.51-.51c53.16-.83,103.6-7.41,156.35-11.35,46.12-3.26,101.29-3.14,141.25,23.23,40.64,27.57,66.46,61.26,93.29,101.76,33.73,52.87,59.92,106,86.61,162.53,38.82,82.63,98.43,227,156.11,294.52,1.45,1.7,13.74,15.8,15.4,14.42,1.3-1.34-13.5-23.69-13.57-23.8-52.89-85.23-93.49-189.11-134.39-281-25.8-58-57.72-125.82-91.56-178.68-28.85-44.14-56.23-79.59-100.53-109.29-18.37-12-40.42-19.31-60-23,27.23-4.95,53.78-10.16,79.1-15.37,56.21-12.16,112.51-25.52,166.12-46.64,48.9-21.92,81.55-50.77,116.7-90.56,31.35-36.31,59.56-80.49,80.41-123.78,2.26-4.66-7.49-26.88-21.57-3.11-32.91,45.39-68.57,74.61-115,105.3-43.55,27.59-83.91,47.6-131.75,66.59-3.14,1.22-7,2.89-10.11,3.85-18.12,6.65-36,12.62-54.2,18.28q-20.87,4.88-41.78,9.51c-40.09,8.84-79,17.52-118.67,28.2-62.47,16.79-185,48.67-247.6,48.55-43-.76-60.41-12.12-74.07-11.39a26.32,26.32,0,0,1-3.29-1.46c-32.26-14.67-54.75-30.81-74.46-60.7-19.66-31.44-16.39-68.15-5.39-102,6-17.59,16.79-38.69,19.48-56.41,2.34-21-21.06-33.06-38-49.69,44.63,8.15,115.69-23.54,148.38-49.74l10.07,3.68c4.19-.17,7.49-1.26,10-5,2.82-4.22,2.37-10.31-.68-13.56L979,1868c-15.23-13.66-31.93-25.11-48.51-37-23-16.52-62.06-70.46-95.75-90.23-9-5.32-17.25-8.1-27.47-5.19,14.52-15.13,45.77-24.79,53-38a59.06,59.06,0,0,0,6.11-19.21c17.77,3.19,33.29,3,53.2-2.06l7.16-2.94a59.58,59.58,0,0,0,18.87-3.93c46.89-18.57,51.58-92.7,17.8-127.62-10.26-10.61-26-18.19-40.73-19.45-15.68-1-26.94,2.55-40.17,10.87-24.18,15.4-29.33,38.92-28,65.54-18-7.42-37.18-10.72-61-11,.85,0-1.69-.07-2.49-.07-11.82.23-13.91,13.41-7.52,18.44a357.76,357.76,0,0,0,51.37,38.06l8.46,4.55-18.37-6.55c-42.93-19.32-79.52-53.37-80.12-102.87-.18-15,2.47-27.14,10.82-39.37,17.26-25.24,48.17-37,65.51-53.23,23.88-22.54,44.6-47.68,68.6-70.59,29.68-27.43,99-59.55,108.66-102.57,4.46-22.19,7.79-44.3,12.49-66.47a138.59,138.59,0,0,0,37.3,46.72c.8,9.13,3.46,17.24,7.26,26.28,8.2,19,20.32,36.48,37,48.87,9.41,7,24.31,14.46,35.21,18,.27.09.85.32.85.32,3.13,1,6.31,2.07,9.52,3l3.07,1.64c-28.69,5.2-56.36,16.26-74.12,40.42a42.21,42.21,0,0,0-5.48,10.18c-2.7,7.64,5.66,16.89,15.23,10.4,35.67-20.47,78.06-37.91,117.9-47.95a10.29,10.29,0,0,0,6.33-4.51c10-.68,19.73-1.38,29.06-2.45l40.15-4.54a110.72,110.72,0,0,0,23.34,1.55,12.06,12.06,0,0,0,10.35-6.1l4.68-.66c2.93-.55,7.23.45,9.58-3.55,2.5-4.23-.65-7.63-4.16-9.74-13.55-8.24-23.17-17-34.29-28.13-30.42-30.83-49.56-57.71-82-90.27-6.17-9.42-23.85-25.58-29.16-29.89-18.49-14.93-39.36-25.93-61.54-34.55,16.89-9.9,36.13-16.07,56-14.39,26.26,2.89,46.16,9.39,70.26,19.83Zm156.61,321.15c12.27,5.61,24.2,11,36.71,16.13,30.89,12.52,62.25,23.73,92.91,36.79,17.3,7.59,33.18,15.12,48.61,26.18a82,82,0,0,1,15.11,14.07,40.94,40.94,0,0,1,7.77,14.58c.57,2.15,0,4.95-.41,7.07a75.36,75.36,0,0,1-5.11,13.94q-2.09,4.39-4.36,8.7c-63.24-24.72-124.57-55-178-95.35-7.56-6.13-14.79-12.34-22-18.88-21.6-20.14-41.2-40.59-57.22-63.75,19.77,15.7,41.69,28.4,66,40.52Zm427.61-883.76c43-8.26,77.78-9.69,121.16-4,30.14,4.44,65,13.6,90.63,30.07,6.57,4.23,18.65,13.25,20.06,21.6-7.51,3.53-14.89,6.39-23.33,6.1-17.71-1.8-40.07-10.34-57.83-15.16-45.38-11.16-80.12-13.61-126.62-12.53-9.82.54-89.3,7.5-134.3,21.28C1739.19,615.39,1777.13,603.87,1817.48,594.89Zm-128.63,77c38.55-23.64,114.23-30.75,153.27-32.9,44.67-1,77.93,1.25,121.52,12,20,5.42,40.61,13.62,61.19,15.7a59.66,59.66,0,0,0,25.48-4.83c-.76,11.06-3.66,21.52-7.35,33.35-9,28.34-17.14,45.07-20.11,75.56-4.13-10-8.22-20.11-12.59-30.08-21.86-48.06-57-67.3-108.18-73.48-49-5.9-109.08,27.47-149,53.62-18.91-13.93-37-27.9-50.46-38Zm298.35,388.44c7.13-10.14,14.46-15.95,25.7-21.14,22.43-9.71,43.2-.33,61.73,12.79,12.47,9.32,32,29.32,42.93,35.37,3,1.23,5.88,2.24,8.69,3.09-22.07,0-44.93,8.12-55.6,28.66-6.65,13.63-9,20.41-4.51,26.53-19.78,3.23-41.7,3.43-60.12-5.94-30.21-15.37-36.62-52.93-18.82-79.36Zm-21.66,289.14c45.76-13.76,97.73-51.61,123.21-60.45a40.72,40.72,0,0,1,8-.93c12.35.22,23.21,12.36,35.72,9.89a18.28,18.28,0,0,0,5.79-2.31c-5.46,15.34-15.78,29.49-27.27,36.84-7.59,4.85-31.66,5.89-40.7,6.43-23.39,1.4-44,2.67-67.12,7.4a392,392,0,0,1-48.91,6.24c3.51-.94,7.24-2,11.26-3.11Zm91.35,11.86c12-1.27,30-3.35,41.67-.27,11.18,3.31,18.69,15.14,20.74,26.23,1.42,7.66,1,14.53-3.4,21-17.87,26.06-93.7,7.62-116.7,1.8-49.23-13-64.27-24.3-95.26-37.75,8.9.14,17.76.34,26.5.53C1974.8,1373.33,2013.37,1366.46,2056.89,1361.35Zm22.47-226.82c6-22.23,23.65-29.52,45.37-30.73,22.55-.31,39.06,3.63,57.7,16.41a89.28,89.28,0,0,1,7.57,6.33,240.34,240.34,0,0,0-46.71.53c-23.74.64-52.14,2.51-63.93,7.46Zm112.79-663.24c-11-19.81-22.33-39.31-33.33-59.13-33.38-63.92-52.85-129.11-54-201.58-.14-9.48-.77-9.15,4.6-1.4,14.95,21.56,31.07,49.77,42.79,73.33,23.06,46.37,37.45,92,43,143.6a183.9,183.9,0,0,1-3.08,45.18ZM1801.3,737.73a45.05,45.05,0,0,0-1.81,9.85c0,1.91,0,3.73.14,5.47-4.66-2.93-9.47-6.09-14.37-9.4Q1793.24,740.65,1801.3,737.73Zm23.76-8.12,8.07-2.64c-7,3.34-12.33,10.63-15,17.85a29.7,29.7,0,0,0-1.31,15A25.43,25.43,0,0,1,1825.06,729.61Zm22.1-6.82a36.15,36.15,0,0,1,10.52,1.61,26.71,26.71,0,0,1,9.07,4.78c9.42,7.72,9.83,21.92,4.46,31.63a20.58,20.58,0,0,1-16.78,10.37,36.92,36.92,0,0,0,6.76-13.33l1.24-7.24c1.71-14.26-8.29-27.68-23-25.57,2.55-.77,5.14-1.52,7.75-2.25Zm-2.64,16.84c4.39,2.08,4,8.13,3.48,11.84,0,.25-.55,2.93-.54,2.93a24.27,24.27,0,0,1-9.06,12.86c-16.23-9.61-2.13-31.54,6.12-27.63Zm311.91,34.19c16-31.75,42.13-64.89,64.08-92.6-5.7,20.95-15.57,40.2-31.27,61.29A190,190,0,0,1,2156.43,773.82Zm-276.17-.22c14-17.38,12.54-43-5.41-57.18,1.08-.18,9.64-1.5,10-1.35.78.28,5.89,5.18,6.63,6.26,7.54,11,9.94,26.69,17.86,38.73,3.83,5.83,8.13,11.4,12,17.23-13-4.33-25.43-4.75-38.83-2.85l-1.91.27-1-.18Zm-656.15,351.92c6,4.54,12.38,9.53,18.92,14.84-25.67-11-53.43-19.39-78.58-21.15-28.08-2-55.76,8.94-78,25.71-12.67-3.84-25.75-6.76-37-7.53a75,75,0,0,0-13.2.12c6.58-10.27,14.8-19.31,25.18-25.33,27.56-14.91,51.52-18.93,82.6-16.63,31,3.54,54.46,12.11,80.15,30Zm-54,71.27c11.78,12.08,27.24,28,30.48,31.7,17.43,20.42,33.73,41.47,50.91,61.92-28.15-21.85-59.89-46.55-90-50.25-24.51-2.71-34.7,1.41-56.85,10.15-12.16,4.63-17.93,2.93-29.24-4.28q-4.14-2.74-8-5.63a10,10,0,0,0-4.56-4.34,10.88,10.88,0,0,0-1.73-.68,118.19,118.19,0,0,1-32.44-43.19l11,6.77c5.16,1.57,8.16,1.4,13.15-.58,5.94-3.22,28.85-28.64,42-38.29a288.89,288.89,0,0,1,46.3,18.71,243.23,243.23,0,0,1,28.92,18Zm-81.39,78.3c23.83,2.82,37.39-17.24,69.9-12.9,16.32,2.6,28.42,9.54,42,18.24,13.84,8.88,43.46,31.13,65.46,49.84-13.18-4.1-42.58-20.28-55.28-26.73-20.12-10.21-40.31-19.48-64.3-25.53-29.85-5.77-23-1.58-45.29,3.7-3.66.16-9.63-4-12.48-6.62Zm1.93,25.24a26.92,26.92,0,0,0,18.33.68,47,47,0,0,0,2.89,17.19A84.06,84.06,0,0,1,1090.65,1300.33ZM889.39,1543.94c21-12.66,43.91-9.81,61.38,6.59,22.7,21.33,24.8,71.44,1,94.12-7.33,7-15.42,9.73-24.6,10.36-6.74-8.88-20.83-22-27.06-27.46a188.19,188.19,0,0,0-35.74-24.25C864.44,1577.93,866.22,1557.93,889.39,1543.94Zm-32.67,79.2c.42,3.93.82,7.83,1.1,11.66a276.63,276.63,0,0,1-37-24.15A116.33,116.33,0,0,1,856.72,1623.14ZM865,1628a195.82,195.82,0,0,1,27.62,21.67,173.85,173.85,0,0,1-27.29-11C865.2,1635.21,865.08,1631.65,865,1628Zm262.53-324.69c7.62,5.74,19.35,23,22.24,29.72a53.9,53.9,0,0,1-7.75-1.81c-6.22-3-13.94-18.23-14.49-27.91ZM852.34,1780c17.95,18.87,35.76,42,55,60.24L893,1836c-17.22-4.75-46.47-8.89-61-14.49-4.21-1.74-7.85-5.11-11-8.31-11.65-12.12-21.35-31.17-22.93-48.87a18.84,18.84,0,0,1,6.9-10.21,17.51,17.51,0,0,1,10.58-2.92C826.39,1753.45,845,1772.22,852.34,1780Zm-5.7,75.49,23.24-1.71c26.51,5.44,51.88,14.55,76,24.87-22.91,16.87-58.32,33.39-84.74,40.45-13.68,3.65-46.76,9.89-59.79-2.1-.43-1.08-.83-2.17-1.17-3.3-9.79-32.12,18.35-52.16,46.51-58.21Zm304.75-554.35c27.36,8.57,59.76,26.53,73.07,33.49,6,3.15,11.44,6,16.61,8.55l-43,3.19a10.74,10.74,0,0,0-2.19-1.12c-4.16-1.54-13.92.3-27.16-2.48,5.16-12.83-9.42-31.94-17.3-41.63ZM1048.66,1150.9a145.84,145.84,0,0,1,26.11,3.75c-11.54,10.45-31.43,29.63-28.71,29.44-7.34,1.1-22.53-21.28-17.25-29.17C1031.52,1150.88,1044.32,1150.75,1048.66,1150.9Zm408.24,973.49c70.49-22.7,149-61.68,208.15-111.31-9.47,13.11-19.47,25.74-29.9,37.6-32.88,36.56-63.76,63.86-109.16,83.93-53,20.46-108.59,33.47-164,45.44-75.4,15.5-162.46,31.19-245.69,39.56,42.78-10.07,84.56-21.44,126.73-34,35.67-10.55,71.33-20,107.16-29.9,19-5.26,37.78-10.74,56.4-17C1423.5,2134.49,1439.94,2129.82,1456.9,2124.39Z"/></g></g></g></svg>